<?xml version="1.0" encoding="UTF-8" standalone="no"?>
<!-- Created with Inkscape (http://www.inkscape.org/) -->

<svg
   width="113.73591mm"
   height="103.39628mm"
   viewBox="0 0 113.73591 103.39628"
   version="1.1"
   id="svg5"
   xmlns="http://www.w3.org/2000/svg"
   xmlns:svg="http://www.w3.org/2000/svg">
  <defs
     id="defs2" />
  <g
     id="layer1"
     transform="translate(-41.720371,-13.756439)">
    <g
       id="g579">
      <path
         d="m 121.85249,31.850787 c -5.94529,0 -11.63209,2.843397 -14.73397,7.754721 h 29.72643 c -3.36038,-4.911324 -9.04718,-7.754721 -14.99246,-7.754721 z"
         fill="#f5b445"
         id="path91"
         style="stroke-width:0.11107" />
      <path
         d="m 140.9808,44.775322 h -38.25663 c -0.77547,0 -1.55094,-0.516981 -2.06792,-1.033963 -0.51698,-0.775472 -0.51698,-1.550945 -0.25849,-2.326416 3.36038,-9.047175 11.89057,-14.73397 21.45473,-14.73397 9.56415,0 18.09435,5.686795 21.45472,14.475479 0.25849,0.775472 0.25849,1.809435 -0.25849,2.326417 -0.25849,0.775472 -1.29245,1.292453 -2.06792,1.292453 z m -33.86228,-5.169814 h 29.72643 c -3.36038,-4.911324 -8.78869,-7.754721 -14.73397,-7.754721 -5.94529,0 -11.89058,2.843397 -14.99246,7.754721 z"
         fill="#0b3a5b"
         id="path93"
         style="stroke-width:0.11107" />
      <path
         d="m 124.1789,39.605508 c 0,-0.775472 0.25849,-1.809435 0.25849,-2.584907 0,-1.809435 -0.25849,-3.36038 -0.51698,-4.911323 -0.77547,-0.258491 -1.29245,-0.258491 -2.06792,-0.258491 -6.20378,0 -11.63209,3.101889 -14.73397,7.754721 z"
         fill="#eaa239"
         id="path95"
         style="stroke-width:0.11107" />
      <path
         d="m 92.643038,39.605508 c -2.326417,-7.49623 -9.305665,-12.924535 -17.318876,-12.924535 -8.013212,0 -14.992461,5.428305 -17.318877,12.924535 z"
         fill="#f5b445"
         id="path97"
         style="stroke-width:0.11107" />
      <path
         d="m 95.744926,44.775322 h -40.84153 c -0.775472,0 -1.550944,-0.258491 -1.809434,-0.775473 -0.516982,-0.51698 -0.775473,-1.292453 -0.516982,-2.067925 1.033963,-11.632081 11.1151,-20.420764 22.747181,-20.420764 11.632082,0 21.713218,8.788683 23.005672,20.420764 0,0.775472 -0.258491,1.550945 -0.516982,2.067925 -0.51698,0.516982 -1.292453,0.775473 -2.067925,0.775473 z M 58.005285,39.605508 h 34.637753 c -2.326417,-7.49623 -9.305665,-12.924535 -17.318877,-12.924535 -8.013211,0 -14.99246,5.428305 -17.318876,12.924535 z"
         fill="#0b3a5b"
         id="path99"
         style="stroke-width:0.11107" />
      <path
         d="m 80.493975,39.605508 5.686795,-5.686795 c -5.945285,-5.945287 -15.767932,-5.945287 -21.971708,0 -1.809435,1.809435 -2.843398,3.618869 -3.61887,5.686795 z"
         fill="#ffca5d"
         id="path101"
         style="stroke-width:0.11107" />
      <path
         d="m 80.752466,39.605508 h 35.671714 c 0.25849,-0.775472 0.25849,-1.809435 0.25849,-2.584907 0,-10.081137 -8.01321,-18.094349 -18.094346,-18.094349 -10.081138,0 -18.094349,8.013212 -18.094349,18.094349 0,0.775472 0,1.809435 0.258491,2.584907 z"
         fill="#f5b445"
         id="path103"
         style="stroke-width:0.11107" />
      <path
         d="M 118.49211,44.775322 H 78.68454 c -1.292453,0 -2.326416,-0.775473 -2.584907,-2.067926 -0.516981,-1.809435 -0.775471,-3.87736 -0.775471,-5.686795 0,-12.924535 10.339627,-23.264162 23.264162,-23.264162 12.924536,0 23.264166,10.339627 23.264166,23.264162 0,1.809435 -0.25849,3.87736 -0.77548,5.686795 -0.25849,1.292453 -1.29245,2.067926 -2.5849,2.067926 z M 80.752466,39.605508 h 35.671714 c 0.25849,-0.775472 0.25849,-1.809435 0.25849,-2.584907 0,-10.081137 -8.01321,-18.094349 -18.094346,-18.094349 -10.081138,0 -18.094349,8.013212 -18.094349,18.094349 0,0.775472 0,1.809435 0.258491,2.584907 z"
         fill="#0b3a5b"
         id="path105"
         style="stroke-width:0.11107" />
      <path
         d="M 96.003416,39.605508 109.44493,26.163991 c -5.94528,-5.945285 -15.767929,-5.945285 -21.971706,0 -3.618869,3.61887 -5.169814,8.788685 -4.394342,13.441517 z"
         fill="#ffca5d"
         id="path107"
         style="stroke-width:0.11107" />
      <path
         d="m 121.85249,73.209298 v 10.339628 c 0,2.843397 2.32641,5.169814 5.16981,5.169813 h 20.67926 v 20.679251 c 0,2.8434 -2.32642,5.16982 -5.16982,5.16982 H 54.644906 c -2.843398,0 -5.169814,-2.32642 -5.169814,-5.16982 V 47.360229 c 0,-2.843398 2.326416,-5.169815 5.169814,-5.169815 h 87.886834 c 2.8434,0 5.16982,2.326417 5.16982,5.169815 V 68.039485 H 127.0223 c -2.8434,0 -5.16981,2.326415 -5.16981,5.169813 z"
         fill="#da8c36"
         id="path109"
         style="stroke-width:0.11107" />
      <path
         d="M 142.53174,117.15272 H 54.644906 c -4.394342,0 -7.754721,-3.36038 -7.754721,-7.75473 V 47.360229 c 0,-4.394342 3.360379,-7.754721 7.754721,-7.754721 h 87.886834 c 4.39434,0 7.75472,3.360379 7.75472,7.754721 v 20.679256 c 0,1.550943 -1.03396,2.584906 -2.5849,2.584907 H 127.0223 c -1.55094,0 -2.58491,1.033962 -2.58491,2.584906 v 10.339628 c 0,1.550944 1.03397,2.584907 2.58491,2.584907 h 20.67926 c 1.55094,0 2.5849,1.033963 2.5849,2.584907 v 20.67925 c 0,4.39435 -3.36038,7.75473 -7.75472,7.75473 z M 54.644906,44.775322 c -1.550944,0 -2.584907,1.033962 -2.584907,2.584907 v 62.037761 c 0,1.55095 1.033963,2.58491 2.584907,2.58491 h 87.886834 c 1.55095,0 2.58491,-1.03396 2.58491,-2.58491 V 91.303646 H 127.0223 c -4.39434,0 -7.75472,-3.360378 -7.75472,-7.75472 V 73.209298 c 0,-4.394341 3.36038,-7.754721 7.75472,-7.754721 h 18.09435 V 47.360229 c 0,-1.550945 -1.03396,-2.584907 -2.58491,-2.584907 z"
         fill="#0b3a5b"
         id="path111"
         style="stroke-width:0.11107" />
      <path
         d="m 142.53174,44.775322 v 20.679255 h 2.58491 V 47.360229 c 0,-1.550945 -1.03396,-2.584907 -2.58491,-2.584907 z m -23.26416,38.773604 0.77547,3.101888 c 1.03396,4.394342 4.91132,7.23774 9.30567,7.23774 h 8.01321 c 2.8434,0 5.16981,2.326417 5.16981,5.169813 v 2.584903 c 0,2.8434 -2.32641,5.16982 -5.16981,5.16982 h -37.22266 c -1.809437,0 -2.843399,-1.55095 -2.584909,-3.36038 1.033963,-3.36038 1.292453,-6.979249 0.775472,-10.598119 C 96.778889,81.481 87.473224,72.433826 76.358123,70.882882 66.276987,69.590428 57.488304,73.72628 52.059999,80.964019 v 28.433971 c 0,1.55095 1.033963,2.58491 2.584907,2.58491 h 87.886834 c 1.55095,0 2.58491,-1.03396 2.58491,-2.58491 V 83.548926 Z"
         fill="#c87629"
         id="path113"
         style="stroke-width:0.11107" />
      <path
         d="m 67.56944,117.15272 c -14.216988,0 -25.849069,-11.63209 -25.849069,-25.849074 0,-14.216988 11.632081,-25.849069 25.849069,-25.849069 14.216988,0 25.84907,11.632081 25.849069,25.849069 0,14.216984 -11.632081,25.849074 -25.849069,25.849074 z m 0,-46.528328 c -11.37359,0 -20.679255,9.305664 -20.679255,20.679254 0,11.373594 9.305665,20.679254 20.679255,20.679254 11.373591,0 20.679256,-9.30566 20.679256,-20.679254 0,-11.37359 -9.305665,-20.679254 -20.679256,-20.679254 z"
         fill="#0b3a5b"
         id="path117"
         style="stroke-width:0.11107" />
      <path
         d="m 152.87137,73.209298 v 10.339628 c 0,2.843397 -2.32642,5.169814 -5.16981,5.169813 H 127.0223 c -2.8434,0 -5.16981,-2.326416 -5.16981,-5.169813 V 73.209298 c 0,-2.843398 2.32641,-5.169813 5.16981,-5.169813 h 20.67926 c 2.84339,0 5.16981,2.326415 5.16981,5.169813 z"
         fill="#da8c36"
         id="path123"
         style="stroke-width:0.11107" />
      <path
         d="m 147.70156,70.624391 v 10.339628 c 0,1.550944 -1.03397,2.584907 -2.58491,2.584907 h -20.67926 c 0,1.550944 1.03397,2.584907 2.58491,2.584907 h 20.67926 c 1.55094,0 2.5849,-1.033963 2.5849,-2.584907 V 73.209298 c 0,-1.550944 -1.03396,-2.584907 -2.5849,-2.584907 z"
         fill="#c87629"
         id="path125"
         style="stroke-width:0.11107" />
      <path
         d="m 132.19211,78.379112 m -2.5849,0 a 2.5849069,2.5849069 0 1 0 5.16981,0 2.5849069,2.5849069 0 1 0 -5.16981,0 z"
         fill="#0b3a5b"
         id="path127"
         style="stroke-width:0.11107" />
      <path
         d="m 138.65438,57.699857 h -10.33963 c -0.77547,0 -1.29245,-0.516982 -1.29245,-1.292454 0,-0.775472 0.51698,-1.292454 1.29245,-1.292454 h 10.33963 c 0.77547,0 1.29246,0.516982 1.29246,1.292454 -1e-5,0.775472 -0.51699,1.292454 -1.29246,1.292454 z"
         fill="#0b3a5b"
         id="path129"
         style="stroke-width:0.11107" />
      <path
         d="m 117.97513,47.360229 c -1.80944,0 -3.10189,1.033963 -3.61887,2.584907 H 94.710963 c -0.775472,0 -1.292454,0.516981 -1.292454,1.292453 0,0.775472 0.516982,1.292453 1.292454,1.292453 h 19.645297 c 0.51698,1.550945 2.06792,2.584907 3.61887,2.584907 2.06792,0 3.87736,-1.809434 3.87736,-3.87736 0,-2.067925 -1.80944,-3.87736 -3.87736,-3.87736 z m 0,5.169813 c -0.77548,0 -1.29246,-0.516981 -1.29246,-1.292453 0,-0.775472 0.51698,-1.292453 1.29246,-1.292453 0.77547,0 1.29245,0.516981 1.29245,1.292453 0,0.775472 -0.51698,1.292453 -1.29245,1.292453 z m -43.943422,2.584907 c -1.809435,0 -3.101888,1.033963 -3.61887,2.584908 H 52.059999 c -0.775472,0 -1.292454,0.516981 -1.292454,1.292453 0,0.775472 0.516982,1.292454 1.292454,1.292453 h 18.352839 c 0.516982,1.550944 2.067925,2.584907 3.61887,2.584907 2.067925,0 3.87736,-1.809435 3.87736,-3.87736 0,-2.067926 -1.809435,-3.877361 -3.87736,-3.877361 z m 0,5.169814 c -0.775473,0 -1.292453,-0.516981 -1.292453,-1.292453 0,-0.775472 0.51698,-1.292453 1.292453,-1.292453 0.775472,0 1.292453,0.516981 1.292453,1.292453 0,0.775472 -0.516981,1.292454 -1.292453,1.292453 z m 59.452862,43.943417 h -14.47548 c -0.51698,-1.55094 -2.06793,-2.58491 -3.61887,-2.58491 -2.06793,0 -3.87736,1.80944 -3.87736,3.87736 0,2.06793 1.80943,3.87736 3.87736,3.87736 1.80943,0 3.10189,-1.03396 3.61887,-2.5849 h 14.47548 c 0.77547,0 1.29245,-0.51698 1.29245,-1.29246 0,-0.77547 -0.51698,-1.29245 -1.29245,-1.29245 z m -18.09435,2.58491 c -0.77547,0 -1.29246,-0.51698 -1.29246,-1.29246 1e-5,-0.77547 0.51699,-1.29245 1.29246,-1.29245 0.77547,0 1.29245,0.51698 1.29245,1.29245 0,0.77548 -0.51698,1.29246 -1.29245,1.29246 z"
         fill="#0b3a5b"
         id="path131"
         style="stroke-width:0.11107" />
      <path
         d="M 147.70156,65.454577 H 127.0223 c -1.03396,0 -1.80943,0.258491 -2.8434,0.516981 l -3.87736,-3.87736 c -1.03396,-1.033963 -2.8434,-1.809434 -4.39434,-1.809435 H 97.037379 c -1.033963,0 -2.067925,-0.516981 -2.843398,-1.033963 L 86.956243,52.013061 C 85.663789,50.720607 83.854354,49.945136 82.30341,49.945136 H 50.767545 c -0.775472,0 -1.292453,0.516981 -1.292453,1.292453 0,0.775472 0.516981,1.292453 1.292453,1.292453 H 82.30341 c 1.033963,0 2.067925,0.516982 2.843398,1.033964 l 7.23774,7.237739 c 1.292453,1.292454 2.843397,1.809435 4.652831,1.809435 H 115.9072 c 1.03396,0 2.06793,0.516982 2.8434,1.033962 l 3.36038,3.36038 c -1.03397,0.775471 -1.80944,2.067925 -2.32642,3.360378 h -13.9585 c -1.80943,0 -3.36038,0.775473 -4.65283,1.809435 l -2.067926,2.067926 c -0.775471,0.775472 -1.809433,1.033962 -2.843397,1.033962 H 85.663789 c -0.775472,0 -1.292454,0.516982 -1.292454,1.292454 0,0.775473 0.516981,1.809435 1.292454,1.809435 h 10.856609 c 1.809435,0 3.360379,-0.775472 4.652832,-1.809435 l 2.06793,-2.067926 c 0.77547,-0.775471 1.80943,-1.033963 2.84339,-1.033963 h 13.18303 v 7.754722 h -14.21699 c -0.77547,0 -1.29245,0.516981 -1.29245,1.292453 0,0.775472 0.51698,1.292453 1.29245,1.292453 h 14.21699 c 0,3.36038 2.06792,6.203777 5.16981,7.23774 l -2.06792,2.067925 c -0.77547,0.775473 -1.80944,1.033963 -2.8434,1.033963 h -13.70001 c -0.51698,-1.550943 -2.06792,-2.584906 -3.61887,-2.584907 -2.06792,0 -3.877357,1.809435 -3.877357,3.877361 0,2.067926 1.809437,3.877361 3.877357,3.877361 1.80944,0 3.10189,-1.033963 3.61887,-2.584908 h 13.70001 c 1.80943,0 3.36038,-0.775472 4.65283,-1.809435 l 3.36038,-3.360379 h 20.16228 c 4.39434,0 7.75472,-3.360379 7.75472,-7.754721 V 73.467788 c 0,-4.652831 -3.36038,-8.013211 -7.75472,-8.013211 z m -45.23588,31.018884 c -0.77547,0 -1.29245,-0.516982 -1.29245,-1.292454 0,-0.775471 0.51698,-1.292453 1.29245,-1.292453 0.77548,0 1.29246,0.516982 1.29246,1.292453 0,0.775472 -0.51698,1.292454 -1.29246,1.292454 z m 47.82078,-12.924535 c 0,1.550944 -1.03396,2.584907 -2.5849,2.584907 H 127.0223 c -1.55094,0 -2.58491,-1.033963 -2.58491,-2.584907 V 73.209298 c 0,-1.550944 1.03397,-2.584907 2.58491,-2.584907 h 20.67926 c 1.55094,0 2.5849,1.033963 2.5849,2.584907 z"
         fill="#0b3a5b"
         id="path133"
         style="stroke-width:0.11107" />
      <g
         id="g226"
         transform="matrix(0.1804751,0,0,0.1804751,45.470037,69.878864)">
        <path
           class="st0"
           d="M 251,125.5 C 251,194.8 194.8,251 125.5,251 56.2,251 0,194.8 0,125.5 0,56.2 56.2,0 125.5,0 194.8,0 251,56.2 251,125.5 Z"
           id="path202" />
        <path
           class="st1"
           d="m 184.3,92 -3.2,-9.8 c -0.6,-2 -2.2,-3.5 -4.2,-4.2 l -9.8,-3 c -1.4,-0.4 -1.4,-2.3 0,-2.8 l 9.8,-3.2 c 2,-0.6 3.5,-2.2 4.2,-4.2 l 3,-9.8 c 0.4,-1.4 2.3,-1.4 2.8,0 l 3.2,9.8 c 0.6,2 2.2,3.5 4.2,4.2 l 9.8,3 c 1.4,0.4 1.4,2.3 0,2.8 l -9.8,3.2 c -2,0.6 -3.5,2.2 -4.2,4.2 l -3,9.8 c -0.5,1.3 -2.4,1.3 -2.8,0 z"
           id="path204" />
        <path
           class="st2"
           d="m 11,123.5 c 3,-5.9 8.9,-10.4 15.1,-13.2 6.2,-2.8 13,-4.5 19.7,-5 13.5,-1.2 26.7,1 38.7,5 6.2,1.9 11.7,4.4 17.4,7 2.8,1.3 5.4,2.9 8.1,4.4 l 7.4,4.3 c 8.2,5 16.1,9.5 23.5,13 7.5,3.4 14.2,5.8 20.5,7 6.3,1.2 12.8,1.2 20.7,-0.6 7.9,-1.8 16.7,-5.7 26,-10.6 9.3,-5 18.9,-11.1 29.8,-17 -1.1,12.4 -4.6,24.1 -10,35.4 -5.6,11.1 -13.4,22 -24.7,30.8 -11.1,8.9 -26.4,15 -41.9,16 -15.6,1.1 -30.3,-2.4 -42.9,-7.6 -12.6,-5.3 -23.6,-12.2 -33.2,-19.8 -2.7,-2.1 -4.1,-3.3 -6.1,-5 l -5.5,-4.9 c -3.7,-2.9 -7.3,-6.4 -11,-9.3 C 55.3,147 48,140.8 40,135.5 c -4,-2.7 -8.1,-5.3 -12.8,-7.5 -2.3,-1.1 -4.8,-2.1 -7.5,-2.9 -2.7,-0.9 -5.4,-1.4 -8.7,-1.6 z"
           id="path206" />
        <path
           class="st1"
           d="M 11,123.7 C 12.5,111 18.4,99.1 27.9,89 37.3,79 52.1,71.2 68.4,70.2 c 8.1,-0.5 16.3,0.4 23.8,2.4 7.5,2.1 14.5,5.1 20.9,8.7 3.2,1.8 6.1,3.8 9.1,5.7 l 7.9,6 12.3,9.7 c 8,6.3 15.6,12.2 22.6,17.1 7.1,4.9 13.1,8.4 18.9,10.5 5.7,2.3 12.9,2.8 22.5,0.4 4.7,-1.1 9.7,-3.1 15,-5.3 5.2,-2.2 10.7,-4.9 16.7,-7.5 -0.7,6.4 -2,12.7 -4.5,18.7 -2.4,6 -5.5,11.9 -9.8,17.4 -2.2,2.7 -4.6,5.4 -7.4,7.8 -2.8,2.4 -5.9,4.7 -9.3,6.7 -6.8,3.9 -14.9,6.8 -23.2,7.9 -8.3,1 -16.6,0.5 -24.2,-1.1 -7.6,-1.6 -14.5,-4.1 -20.9,-7 -12.7,-5.9 -23.3,-13.3 -32.7,-21.2 -4.7,-3.9 -9.1,-8 -13.3,-12.2 l -4.9,-5 c -1.5,-1.4 -3,-2.9 -4.5,-4.2 -6,-5.3 -11.6,-9.4 -17.7,-11.9 -6.1,-2.7 -13.9,-3.7 -23.5,-1.9 -9.6,1.9 -20,6 -31.2,11.8 z"
           id="path208" />
        <path
           class="st1"
           d="m 62,189 c 0,3.9 -3.1,7 -7,7 -3.9,0 -7,-3.1 -7,-7 0,-3.9 3.1,-7 7,-7 3.9,0 7,3.1 7,7 z"
           id="path210" />
        <path
           class="st1"
           d="m 62,189 c 0,3.9 -3.1,7 -7,7 -3.9,0 -7,-3.1 -7,-7 0,-3.9 3.1,-7 7,-7 3.9,0 7,3.1 7,7 z"
           id="path212" />
      </g>
    </g>
  </g>
  <style
     type="text/css"
     id="style200">
	.st0{fill-rule:evenodd;clip-rule:evenodd;fill:#29296E;}
	.st1{fill-rule:evenodd;clip-rule:evenodd;fill:#FAFAFA;}
	.st2{fill-rule:evenodd;clip-rule:evenodd;fill:#FF4F0A;}
</style>
</svg>
